<?xml version="1.0" encoding="utf-8"?>
<svg id="svg2" viewBox="0 0 500 670" xmlns="http://www.w3.org/2000/svg">
  <desc>Source: openclipart.org/detail/209545</desc>
  <g id="svg-1" transform="matrix(1, 0, 0, 1.019111, 16.983755, 7.638242)" style="">
    <desc>Source: openclipart.org/detail/209545</desc>
    <path id="path222" style="fill: rgb(255, 255, 255);" d="M 80.731 393.313 C 90.964 393.697 98.376 396.751 103.056 402.353 C 107.743 407.039 108.689 411.868 105.876 417.024 C 103.056 421.241 97.518 423.357 89.088 423.357 C 81.136 422.881 74.182 420.781 68.089 417.024 C 62.559 413.296 61.372 408.374 64.667 402.353 C 68.325 396.261 73.722 393.313 80.731 393.313 Z"/>
    <g id="Background" transform="matrix(0.684857, 0, 0, 0.684856, 6.120642, 117.272545)"/>
    <g id="Watermark" opacity="0.8" transform="matrix(0.684857, 0, 0, 0.684856, 6.120642, 117.272545)"/>
    <g id="Logo" transform="matrix(0.684857, 0, 0, 0.684856, 6.120642, 117.272545)"/>
    <g id="group-1" transform="matrix(0.684857, 0, 0, 0.684856, -116.995918, 55.714272)"/>
    <g id="Design_Elements" transform="matrix(0.684857, 0, 0, 0.684857, -73.757484, -29.068171)">
      <g>
        <g>
          <g/>
        </g>
        <g>
          <g/>
        </g>
        <g/>
        <g>
          <g/>
        </g>
        <g style="" transform="matrix(6.993299, 0, 0, 7.298089, -2197.227295, -1356.78772)">
          <polygon fill="#FFEDA8" points="337.974,290.743 357.337,290.743 367.1,307.653 388.914,307.653 398.635,290.815 &#10;&#9;&#9;&#9;&#9;418.101,290.815 429.009,271.924 419.266,255.05 429.009,238.177 418.101,219.285 398.635,219.285 388.914,202.448 &#10;&#9;&#9;&#9;&#9;367.1,202.448 357.421,219.213 337.974,219.213 327.067,238.105 336.809,254.978 327.067,271.852 &#9;&#9;&#9;"/>
          <g>
            <path fill="#E9B94E" d="M337.974,290.743h19.363l9.763,16.909h21.814l9.722-16.837h19.465l10.908-18.892l-9.743-16.873 l9.743-16.873l-10.908-18.892h-19.465l-9.722-16.837H367.1l-9.679,16.765h-19.446l-10.907,18.892l9.742,16.873l-9.742,16.873 L337.974,290.743z M331.812,271.852l8.535-14.783h17.031l8.553,14.815l-8.517,14.75h-17.068L331.812,271.852z M386.542,240.232 l8.534,14.783l-8.535,14.783H369.51l-8.554-14.814l8.517-14.751H386.542z M386.541,303.544h-17.068l-8.535-14.783l8.535-14.783 h17.069l8.534,14.783L386.541,303.544z M415.728,286.706h-17.069l-8.534-14.783l8.534-14.783h17.07l8.534,14.783 L415.728,286.706z M424.263,238.177l-8.535,14.783h-17.069l-8.534-14.783l8.534-14.783h17.07L424.263,238.177z M369.473,206.557 h17.069l8.534,14.783l-8.535,14.783h-16.99l-8.574-14.85L369.473,206.557z M340.348,223.322h16.989l8.574,14.851l-8.496,14.714 h-17.068l-8.535-14.783L340.348,223.322z"/>
          </g>
        </g>
        <g>
          <g/>
        </g>
        <g>
          <g/>
        </g>
        <g>
          <g/>
        </g>
      </g>
      <g>
        <g/>
        <g/>
        <g/>
        <g/>
        <g/>
        <g/>
        <g>
          <g/>
        </g>
        <g/>
      </g>
    </g>
    <g id="group-2" opacity="0.8" transform="matrix(0.684857, 0, 0, 0.684856, -116.995918, 55.714272)"/>
    <g id="group-3" transform="matrix(0.684857, 0, 0, 0.684856, -116.995918, 55.714272)"/>
  </g>
</svg>