<?xml version="1.0" encoding="utf-8"?>
<svg id="svg2" viewBox="0 0 500 670" xmlns="http://www.w3.org/2000/svg">
  <desc>Source: openclipart.org/detail/209545</desc>
  <path id="path222" style="fill: rgb(255, 255, 255);" d="M 96.878 426.786 C 107.111 427.17 114.523 430.224 119.203 435.826 C 123.89 440.512 124.836 445.341 122.023 450.497 C 119.203 454.714 113.665 456.83 105.235 456.83 C 97.283 456.354 90.329 454.254 84.236 450.497 C 78.706 446.769 77.519 441.847 80.814 435.826 C 84.472 429.734 89.869 426.786 96.878 426.786 Z"/>
  <g id="Background" transform="matrix(0.684857, 0, 0, 0.684856, 22.267338, 150.745193)"/>
  <g id="Watermark" opacity="0.8" transform="matrix(0.684857, 0, 0, 0.684856, 22.267338, 150.745193)"/>
  <g id="Logo" transform="matrix(0.684857, 0, 0, 0.684856, 22.267338, 150.745193)"/>
  <g id="group-1" transform="matrix(0.684857, 0, 0, 0.684856, -100.84922, 89.18692)"/>
  <g id="Design_Elements" transform="matrix(0.684857, 0, 0, 0.684857, -57.61079, 4.404478)">
    <g>
      <g>
        <g/>
      </g>
      <g>
        <g/>
      </g>
      <g/>
      <g>
        <g/>
      </g>
      <g style="" transform="matrix(6.993299, 0, 0, 7.298089, -2197.227295, -1356.78772)">
        <polygon fill="#FFEDA8" points="337.974,290.743 357.337,290.743 367.1,307.653 388.914,307.653 398.635,290.815 &#10;&#9;&#9;&#9;&#9;418.101,290.815 429.009,271.924 419.266,255.05 429.009,238.177 418.101,219.285 398.635,219.285 388.914,202.448 &#10;&#9;&#9;&#9;&#9;367.1,202.448 357.421,219.213 337.974,219.213 327.067,238.105 336.809,254.978 327.067,271.852 &#9;&#9;&#9;"/>
        <g>
          <path fill="#E9B94E" d="M337.974,290.743h19.363l9.763,16.909h21.814l9.722-16.837h19.465l10.908-18.892l-9.743-16.873 l9.743-16.873l-10.908-18.892h-19.465l-9.722-16.837H367.1l-9.679,16.765h-19.446l-10.907,18.892l9.742,16.873l-9.742,16.873 L337.974,290.743z M331.812,271.852l8.535-14.783h17.031l8.553,14.815l-8.517,14.75h-17.068L331.812,271.852z M386.542,240.232 l8.534,14.783l-8.535,14.783H369.51l-8.554-14.814l8.517-14.751H386.542z M386.541,303.544h-17.068l-8.535-14.783l8.535-14.783 h17.069l8.534,14.783L386.541,303.544z M415.728,286.706h-17.069l-8.534-14.783l8.534-14.783h17.07l8.534,14.783 L415.728,286.706z M424.263,238.177l-8.535,14.783h-17.069l-8.534-14.783l8.534-14.783h17.07L424.263,238.177z M369.473,206.557 h17.069l8.534,14.783l-8.535,14.783h-16.99l-8.574-14.85L369.473,206.557z M340.348,223.322h16.989l8.574,14.851l-8.496,14.714 h-17.068l-8.535-14.783L340.348,223.322z"/>
        </g>
      </g>
      <g>
        <g/>
      </g>
      <g>
        <g/>
      </g>
      <g>
        <g/>
      </g>
    </g>
    <g>
      <g/>
      <g/>
      <g/>
      <g/>
      <g/>
      <g/>
      <g>
        <g/>
      </g>
      <g/>
    </g>
  </g>
  <g id="group-2" opacity="0.8" transform="matrix(0.684857, 0, 0, 0.684856, -100.84922, 89.18692)"/>
  <g id="group-3" transform="matrix(0.684857, 0, 0, 0.684856, -100.84922, 89.18692)"/>
</svg>